<?xml version="1.0" encoding="utf-8"?>
<!-- Generator: Adobe Illustrator 26.3.1, SVG Export Plug-In . SVG Version: 6.00 Build 0)  -->
<svg version="1.1" id="Layer_1" xmlns="http://www.w3.org/2000/svg" xmlns:xlink="http://www.w3.org/1999/xlink" x="0px" y="0px"
	 viewBox="0 0 267.9 77.4" style="enable-background:new 0 0 267.9 77.4;" xml:space="preserve">
<style type="text/css">
	.st0{clip-path:url(#SVGID_00000180362411534859193340000004946574234403618709_);}
	.st1{clip-path:url(#SVGID_00000183929907332490366290000010655174843505249981_);fill:#2D2AA5;}
	.st2{clip-path:url(#SVGID_00000130648236135735617590000011752485998377125773_);}
	.st3{clip-path:url(#SVGID_00000134209617616693800190000010134889341112831364_);fill:#40CAA1;}
	.st4{clip-path:url(#SVGID_00000048490783168814381700000003652587988121958840_);}
	.st5{clip-path:url(#SVGID_00000098920729233742218880000007592985302775200676_);fill:#33AE8A;}
</style>
<g>
	<g>
		<defs>
			<path id="SVGID_1_" d="M30.1,41.6V23.9l11,6.8v33.9h-11V52.1H15.2v12.5h-11V30.7l11-6.8v17.6H30.1z M256.4,30.4h11.6l-0.2,0.7
				l-11.2,31.8c-3.7,10.5-9.7,14.9-19.2,14.4l-0.5,0V67.2h0.5c4.3,0,6.3-1.3,7.7-4.9l-13.3-31.8h11.9l6.9,19L256.4,30.4z
				 M217.7,15.3h10.8v48.9h-10.8V15.3z M201.4,15.3h10.8v48.9h-10.8V15.3z M185.2,62c-2,2-5.2,3.2-8.9,3.2
				c-7.4,0-12.8-5.5-12.8-14.1V30.4h10.8v19.2c0,3.5,2,5.5,5.2,5.5c3.6,0,5.6-2.1,5.6-6.3V30.4H196v33.8h-10.8V62z M159.3,16.4
				l0.5,0v10.5l-0.5,0c-3.5-0.3-5.4,0.8-5.5,3.6h6.1v10.5h-6.1v23.4h-10.8V40.9h-4.4V30.4h4.4C143,20.8,148.7,15.7,159.3,16.4z
				 M128.7,30.4h6.8v10.5h-6.8V52c0,2.1,1.5,2.6,6.2,2.3l0.5,0v9.9l-0.4,0c-12.6,1.3-17.2-2.2-17.2-12.2V40.9h-5.3V30.4h5.3v-6.1
				l10.8-3.3V30.4z M94.9,40.5c0,0.6,0.9,1.1,3.1,1.8c0.4,0.1,2,0.5,2.2,0.6c0.9,0.3,1.7,0.5,2.4,0.7c5.5,1.8,8.4,4.8,8.4,10.3
				c0,7.2-5.9,11.3-14.2,11.3c-6.9,0-12-2.7-14.6-8.1l-0.2-0.4l9.5-5.4l0.2,0.6c0.8,2.3,2.5,3.5,5.1,3.5c2.1,0,3-0.6,3-1.5
				c0-0.6-0.9-1.1-3-1.8c-0.5-0.1-2.4-0.7-2.2-0.6c-1-0.3-1.7-0.5-2.5-0.8c-5.5-1.9-8.4-4.8-8.4-9.9c0-7,5.6-11.3,13.4-11.3
				c5.6,0,10.5,2.6,13.2,7.3l0.3,0.4l-9.3,5l-0.2-0.4c-0.9-1.8-2.2-2.6-4-2.6C95.7,39.1,94.9,39.7,94.9,40.5z M62.9,54.6
				c4.1,0,7-3,7-7.2c0-4.3-3-7.2-7-7.2c-4.1,0-7,3-7,7.2C55.8,51.6,58.8,54.6,62.9,54.6z M62.9,65.1c-10,0-17.9-7.8-17.9-17.8
				c0-10,7.9-17.8,17.9-17.8s17.9,7.8,17.9,17.8C80.8,57.3,72.9,65.1,62.9,65.1z"/>
		</defs>
		<clipPath id="SVGID_00000078012235264945929080000012479185534333707701_">
			<use xlink:href="#SVGID_1_"  style="overflow:visible;"/>
		</clipPath>
		<g style="clip-path:url(#SVGID_00000078012235264945929080000012479185534333707701_);">
			<defs>
				<rect id="SVGID_00000111895161865568373930000004459802774136463232_" width="268" height="78"/>
			</defs>
			<clipPath id="SVGID_00000157265963560389981020000012132443673077136281_">
				<use xlink:href="#SVGID_00000111895161865568373930000004459802774136463232_"  style="overflow:visible;"/>
			</clipPath>
			
				<rect x="-0.8" y="10.3" style="clip-path:url(#SVGID_00000157265963560389981020000012132443673077136281_);fill:#2D2AA5;" width="273.7" height="72.1"/>
		</g>
	</g>
	<g>
		<defs>
			<polygon id="SVGID_00000152249518750621143210000006628822836021536399_" points="45.3,24.8 22.7,11.4 0,24.8 0,13.4 22.7,0 
				45.3,13.4 			"/>
		</defs>
		<clipPath id="SVGID_00000129920178987537487590000001357091651321975177_">
			<use xlink:href="#SVGID_00000152249518750621143210000006628822836021536399_"  style="overflow:visible;"/>
		</clipPath>
		<g style="clip-path:url(#SVGID_00000129920178987537487590000001357091651321975177_);">
			<defs>
				<rect id="SVGID_00000180338733618079859120000016172938919963046040_" width="268" height="78"/>
			</defs>
			<clipPath id="SVGID_00000054262801822877231380000016864501426054839211_">
				<use xlink:href="#SVGID_00000180338733618079859120000016172938919963046040_"  style="overflow:visible;"/>
			</clipPath>
			
				<rect x="-5" y="-5" style="clip-path:url(#SVGID_00000054262801822877231380000016864501426054839211_);fill:#40CAA1;" width="55.3" height="34.8"/>
		</g>
	</g>
	<g>
		<defs>
			<polygon id="SVGID_00000133507270568751189470000018348637454496167079_" points="45.3,24.8 22.7,11.4 22.7,0 45.3,13.4 			"/>
		</defs>
		<clipPath id="SVGID_00000046331152661785454680000004629673840442201273_">
			<use xlink:href="#SVGID_00000133507270568751189470000018348637454496167079_"  style="overflow:visible;"/>
		</clipPath>
		<g style="clip-path:url(#SVGID_00000046331152661785454680000004629673840442201273_);">
			<defs>
				<rect id="SVGID_00000020388478379021247970000000424223906191840944_" width="268" height="78"/>
			</defs>
			<clipPath id="SVGID_00000027565013670649963130000000053814057873978761_">
				<use xlink:href="#SVGID_00000020388478379021247970000000424223906191840944_"  style="overflow:visible;"/>
			</clipPath>
			
				<rect x="17.7" y="-5" style="clip-path:url(#SVGID_00000027565013670649963130000000053814057873978761_);fill:#33AE8A;" width="32.7" height="34.8"/>
		</g>
	</g>
</g>
</svg>
